<?xml version="1.0" encoding="UTF-8" standalone="no"?>
<!-- Created with Inkscape (http://www.inkscape.org/) -->

<svg
   xmlns:dc="http://purl.org/dc/elements/1.1/"
   xmlns:cc="http://creativecommons.org/ns#"
   xmlns:rdf="http://www.w3.org/1999/02/22-rdf-syntax-ns#"
   xmlns:svg="http://www.w3.org/2000/svg"
   xmlns="http://www.w3.org/2000/svg"
   xmlns:sodipodi="http://sodipodi.sourceforge.net/DTD/sodipodi-0.dtd"
   xmlns:inkscape="http://www.inkscape.org/namespaces/inkscape"
   width="210mm"
   height="297mm"
   viewBox="0 0 210 297"
   version="1.1"
   id="svg8"
   inkscape:version="0.92.1 r15371"
   sodipodi:docname="protecia_logo_80_100.svg">
  <defs
     id="defs2" />
  <sodipodi:namedview
     id="base"
     pagecolor="#ffffff"
     bordercolor="#666666"
     borderopacity="1.0"
     inkscape:pageopacity="0.0"
     inkscape:pageshadow="2"
     inkscape:zoom="0.35"
     inkscape:cx="-136.1457"
     inkscape:cy="640.63126"
     inkscape:document-units="mm"
     inkscape:current-layer="layer1"
     showgrid="false"
     inkscape:window-width="1920"
     inkscape:window-height="1017"
     inkscape:window-x="-8"
     inkscape:window-y="-8"
     inkscape:window-maximized="1" />
  <metadata
     id="metadata5">
    <rdf:RDF>
      <cc:Work
         rdf:about="">
        <dc:format>image/svg+xml</dc:format>
        <dc:type
           rdf:resource="http://purl.org/dc/dcmitype/StillImage" />
        <dc:title></dc:title>
      </cc:Work>
    </rdf:RDF>
  </metadata>
  <g
     inkscape:label="Layer 1"
     inkscape:groupmode="layer"
     id="layer1">
    <path
       style="fill:#000000;stroke-width:0.18489261"
       d="m 67.552315,223.73705 c -0.303387,-0.22184 -0.32753,-0.76268 -0.329531,-7.38187 -0.0012,-3.92836 0.05172,-7.31222 0.117562,-7.51968 0.173953,-0.54808 0.92226,-0.62937 4.958737,-0.53872 3.536961,0.0794 3.557689,0.0823 4.662112,0.65038 1.193321,0.61377 1.630253,1.02287 2.327471,2.17923 0.374309,0.6208 0.445041,0.9771 0.440456,2.21871 -0.0047,1.2825 -0.07765,1.61079 -0.548461,2.46935 -0.628116,1.14541 -1.429426,1.86202 -2.816481,2.51876 -0.823447,0.38989 -1.25461,0.46622 -2.633175,0.46622 -2.158807,0 -2.225459,0.0823 -2.087935,2.57806 0.09216,1.67252 0.06995,1.8381 -0.295618,2.20367 -0.340332,0.34033 -0.608778,0.39527 -1.931515,0.39527 -0.965455,0 -1.657885,-0.0889 -1.863622,-0.23938 z m 6.126208,-8.73497 c 0.994957,-0.41571 1.341299,-0.79998 1.341299,-1.48815 0,-0.71379 -0.641088,-1.26603 -1.700425,-1.46476 -1.265799,-0.23747 -1.442749,-0.0589 -1.442749,1.45631 0,1.8209 0.3433,2.10604 1.801875,1.4966 z m 10.031252,8.60456 c -0.35698,-0.35698 -0.369785,-0.6163 -0.369785,-7.48815 0,-6.97805 0.0076,-7.12599 0.387113,-7.50548 0.374428,-0.37442 0.524372,-0.38487 4.576092,-0.31879 4.103093,0.0669 4.207933,0.0783 5.113442,0.55476 1.782058,0.93772 2.49605,2.01497 2.49605,3.76599 0,1.16193 -0.06676,1.41464 -0.577295,2.18542 -0.317513,0.47935 -0.862308,1.08894 -1.210655,1.35464 -0.940309,0.71721 -1.039422,1.01131 -0.560761,1.66395 1.568869,2.1391 3.134593,4.13238 3.342533,4.25529 0.267551,0.15815 0.670212,0.84139 0.670212,1.13723 0,0.1011 -0.130745,0.31458 -0.290546,0.47438 -0.400294,0.4003 -3.742863,0.41335 -4.50814,0.0176 -0.493767,-0.25534 -2.398864,-2.71047 -3.582193,-4.61644 -0.401365,-0.64649 -0.633671,-0.84231 -0.999219,-0.84231 h -0.476276 l 0.11803,2.32882 c 0.116412,2.2969 0.02154,2.91 -0.504651,3.26135 -0.111892,0.0747 -0.889852,0.13711 -1.728801,0.13867 -1.281183,0.002 -1.58456,-0.0564 -1.89515,-0.36695 z m 6.922964,-9.86786 c 0.580895,-0.38062 0.63248,-1.1272 0.09766,-1.41342 -0.206294,-0.1104 -0.801075,-0.25119 -1.32174,-0.31286 -0.788765,-0.0934 -0.988332,-0.0551 -1.196509,0.22958 -0.302345,0.41347 -0.321994,1.08497 -0.0468,1.59919 0.173229,0.32368 0.334625,0.36676 1.098847,0.29334 0.492686,-0.0473 1.108525,-0.22547 1.368534,-0.39583 z m 15.449041,10.07388 c -2.02536,-0.44394 -3.93597,-2.10654 -4.77758,-4.15742 -1.769156,-4.31117 -0.20901,-8.9732 3.61114,-10.79084 0.9638,-0.45858 1.27318,-0.51063 3.01537,-0.50731 1.7465,0.003 2.05087,0.0562 3.03225,0.5268 1.50704,0.72266 2.7358,1.92984 3.47224,3.41125 0.6072,1.22143 0.61387,1.26299 0.61387,3.82335 0,2.5061 -0.0181,2.62676 -0.56841,3.79044 -0.72131,1.52526 -1.8767,2.67336 -3.40678,3.3853 -0.98979,0.46054 -1.47904,0.5681 -2.77339,0.60973 -0.86437,0.0278 -1.86279,-0.0133 -2.21871,-0.0913 z m 3.00493,-4.05073 c 1.18041,-1.0238 1.7629,-3.60777 1.19139,-5.28507 -1.04229,-3.05895 -3.43335,-3.16813 -4.66802,-0.21316 -0.35114,0.8404 -0.34283,2.88906 0.0152,3.74593 0.38326,0.91727 1.14881,1.89232 1.63152,2.078 0.50902,0.19578 1.41446,0.0347 1.82991,-0.3257 z m 14.12629,3.87638 c -0.2704,-0.2988 -0.30599,-0.98266 -0.30599,-5.87959 0,-4.0635 -0.0592,-5.60064 -0.22187,-5.76334 -0.13662,-0.13661 -0.80649,-0.22187 -1.74328,-0.22187 -1.90641,0 -2.10249,-0.15642 -2.10249,-1.67723 0,-1.89935 -0.21513,-1.83573 6.20606,-1.83573 3.35168,0 5.60241,0.0727 5.81784,0.18804 0.79019,0.4229 0.84407,2.91621 0.0694,3.21347 -0.15975,0.0613 -0.94633,0.11145 -1.74796,0.11145 -1.25178,0 -1.48454,0.0505 -1.64892,0.35763 -0.11952,0.22335 -0.19139,2.40625 -0.19139,5.81364 0,6.45283 0.16225,6.03165 -2.32364,6.03165 -1.2201,0 -1.55919,-0.0634 -1.80779,-0.33812 z m 12.27221,0.01 c -0.40469,-0.3277 -0.40524,-0.33808 -0.40009,-7.53397 l 0.005,-7.20581 0.41102,-0.33282 c 0.37558,-0.30413 0.80809,-0.32807 5.01708,-0.27775 5.32192,0.0636 5.13043,-0.005 5.13043,1.84263 0,1.54081 -0.2739,1.68496 -3.09433,1.6285 -2.81118,-0.0563 -2.77419,-0.061 -3.01377,0.38664 -0.15911,0.29729 -0.13907,0.48209 0.0902,0.83201 0.28868,0.44062 0.34717,0.44984 2.85031,0.44984 3.03775,0 3.16757,0.0693 3.16757,1.68948 0,1.67805 -0.10364,1.73711 -2.97618,1.69576 -1.348,-0.0194 -2.60264,0.0459 -2.78809,0.14517 -0.28232,0.15109 -0.33718,0.41642 -0.33718,1.63045 0,1.04624 0.0752,1.51244 0.27017,1.67422 0.18441,0.15305 1.0339,0.2174 2.67614,0.20273 2.18593,-0.0195 2.44022,0.0127 2.78055,0.35309 0.52893,0.52893 0.53191,2.25109 0.005,2.7782 -0.34957,0.34956 -0.61631,0.36978 -4.87917,0.36978 -4.04318,0 -4.55128,-0.0339 -4.91463,-0.32815 z m 19.22333,0.16233 c -3.16615,-1.07496 -4.98189,-3.17106 -5.41391,-6.24984 -0.67735,-4.82704 2.24595,-8.88545 6.65199,-9.23495 2.54752,-0.20208 5.3786,0.68921 5.77178,1.81709 0.33702,0.96678 0.25706,2.81676 -0.13717,3.17354 -0.47363,0.42863 -0.62748,0.39411 -1.61994,-0.36345 -1.61292,-1.23117 -2.69111,-1.45856 -3.91965,-0.82663 -1.52687,0.78539 -2.24954,2.06692 -2.27463,4.03371 -0.0185,1.44895 0.12623,1.89977 0.93634,2.9167 1.39611,1.75253 3.31322,1.86235 5.25383,0.30097 1.30968,-1.05375 1.96217,-0.67518 1.96217,1.13842 0,1.87027 -0.16266,2.08158 -2.31116,3.00244 -0.8304,0.35592 -4.13186,0.55267 -4.89965,0.292 z m 12.2607,0.0206 c -0.30049,-0.19107 -0.61247,-1.06057 -0.61247,-1.70699 0,-0.93324 0.36022,-1.45777 1.09141,-1.58929 0.36579,-0.0658 0.76452,-0.19839 0.88607,-0.29466 0.25662,-0.20323 0.33897,-7.66186 0.0889,-8.05254 -0.082,-0.12813 -0.51567,-0.3391 -0.96369,-0.46881 -0.72163,-0.20892 -0.83326,-0.3148 -0.97824,-0.92783 -0.09,-0.38059 -0.10996,-0.97817 -0.0443,-1.32795 0.22168,-1.18167 0.29591,-1.20254 4.27807,-1.20254 4.26171,0 4.33177,0.0284 4.33177,1.75649 0,1.14407 -0.41111,1.75647 -1.17916,1.75647 -0.8404,0 -0.90289,0.30073 -0.90289,4.34498 0,2.61223 0.0669,3.86731 0.21559,4.04652 0.11858,0.14287 0.50283,0.31366 0.85389,0.37952 0.78404,0.14708 1.01257,0.54333 1.01257,1.75571 0,0.6901 -0.0973,1.03394 -0.36979,1.3064 -0.34438,0.34439 -0.61422,0.36959 -3.92896,0.36695 -1.95755,-0.002 -3.65799,-0.0657 -3.77873,-0.14243 z m 12.09615,-0.17649 c -0.4101,-0.45315 -0.40448,-0.82151 0.0255,-1.6732 0.19049,-0.3773 0.4807,-1.15295 0.6449,-1.72369 0.16421,-0.57074 0.42385,-1.27795 0.57698,-1.57159 0.15313,-0.29364 0.27894,-0.64623 0.27957,-0.78354 5.5e-4,-0.13731 0.51123,-1.80134 1.13467,-3.69785 2.01518,-6.1301 1.81547,-5.82345 3.85277,-5.91596 2.1235,-0.0964 2.46801,0.0863 3.03127,1.60823 0.75996,2.05337 1.2209,3.37902 1.69715,4.88095 1.1406,3.59706 1.40627,4.39772 1.94785,5.87034 0.31789,0.86437 0.61916,1.87636 0.66949,2.24885 0.12673,0.93792 -0.2936,1.13359 -2.25778,1.05108 -1.81464,-0.0762 -2.17599,-0.31246 -2.58504,-1.68992 -0.14992,-0.50481 -0.4195,-1.02933 -0.59906,-1.1656 -0.38749,-0.29404 -2.50182,-0.34523 -3.01069,-0.0729 -0.19197,0.10273 -0.49297,0.64417 -0.66958,1.20446 -0.46988,1.49064 -0.71897,1.64817 -2.72326,1.72222 -1.4825,0.0548 -1.73402,0.0183 -2.01477,-0.2919 z m 7.4077,-6.37136 c 0.49373,-0.49373 0.11709,-1.81194 -0.5177,-1.81194 -0.40914,0 -0.73958,0.51498 -0.73958,1.15267 0,0.50614 0.31476,0.88114 0.73958,0.88114 0.1627,0 0.39567,-0.0998 0.5177,-0.22187 z M 83.247544,201.40441 c -3.169309,-0.28057 -8.042045,-1.44909 -10.804661,-2.59104 -1.303446,-0.53878 -4.383477,-2.4207 -5.650782,-3.45264 -1.268463,-1.0329 -2.919106,-3.13686 -3.632075,-4.62955 -1.322545,-2.76894 -1.958664,-7.00821 -1.377527,-9.18023 0.162162,-0.60609 0.294366,-1.43811 0.293786,-1.84893 -0.0014,-0.95892 0.935986,-3.7481 2.052962,-6.10883 0.481149,-1.01691 1.006401,-2.14013 1.167227,-2.49605 1.137121,-2.51652 5.006622,-7.90716 8.751643,-12.192 0.909297,-1.04036 2.507253,-2.59801 2.889363,-2.81645 0.119872,-0.0685 1.19087,-0.15137 2.379998,-0.18406 1.821411,-0.0501 2.210429,-0.0111 2.469127,0.24761 0.414091,0.4141 0.226368,1.08973 -0.544819,1.96086 -0.608611,0.68747 -1.937192,2.58665 -2.986343,4.26891 -0.305073,0.48917 -0.783482,1.1886 -1.063132,1.5543 -0.279651,0.3657 -0.508455,0.71386 -0.508455,0.77368 0,0.166 -1.2998,3.45697 -1.578243,3.99595 -0.344668,0.66717 -1.195146,4.89188 -1.195146,5.93683 0,0.90502 0.385749,2.81468 0.845418,4.18526 0.764767,2.28027 3.611777,5.32569 6.074234,6.49756 0.821128,0.39077 1.825768,0.81294 2.232532,0.93816 0.406764,0.12522 0.822772,0.29081 0.924463,0.36798 0.101691,0.0772 0.808905,0.27866 1.571588,0.44775 0.762681,0.16909 1.885904,0.44603 2.496049,0.61542 0.91233,0.25329 2.25327,0.31956 7.550188,0.3731 6.024111,0.0609 6.550291,0.0399 8.132571,-0.32441 0.93045,-0.21423 2.69137,-0.50824 3.91315,-0.65336 1.22178,-0.14512 2.69775,-0.43326 3.27993,-0.64032 0.58219,-0.20706 1.31702,-0.37647 1.63298,-0.37647 0.31595,0 1.17085,-0.19923 1.89977,-0.44272 0.72891,-0.24351 1.85545,-0.5409 2.50342,-0.66087 0.64796,-0.11998 1.43838,-0.3318 1.75648,-0.47072 0.3181,-0.13893 1.45198,-0.51293 2.51973,-0.83112 1.06776,-0.31819 2.35739,-0.74915 2.86584,-0.9577 0.50846,-0.20855 1.30907,-0.48652 1.77914,-0.61772 0.47007,-0.1312 1.30209,-0.44904 1.84892,-0.70632 0.54684,-0.25728 1.79447,-0.75637 2.77252,-1.10909 0.97804,-0.35272 1.93486,-0.72917 2.12626,-0.83654 0.1914,-0.10737 1.80403,-0.86678 3.58363,-1.68759 1.77959,-0.82082 3.44362,-1.61518 3.69785,-1.76527 0.25422,-0.15008 1.46065,-0.77828 2.68094,-1.396 1.22029,-0.61771 2.30489,-1.19449 2.41021,-1.28173 0.10532,-0.0872 0.72933,-0.42298 1.38669,-0.74609 0.65736,-0.32312 1.56961,-0.85313 2.02722,-1.17781 0.45761,-0.32468 1.24803,-0.82944 1.75648,-1.12172 0.50845,-0.29227 1.17407,-0.73126 1.47914,-0.97554 0.30508,-0.24427 1.22029,-0.85329 2.03382,-1.35336 0.81353,-0.50008 2.10315,-1.36572 2.86584,-1.92365 0.76268,-0.55794 1.9691,-1.39962 2.68093,-1.87041 0.71184,-0.4708 1.66866,-1.19445 2.12627,-1.60813 5.74909,-5.19717 8.25924,-7.57368 9.27226,-8.77862 0.48755,-0.57992 0.99279,-1.18115 1.12276,-1.33609 0.12997,-0.15492 0.86118,-0.99674 1.62491,-1.8707 0.76372,-0.87397 1.50857,-1.82883 1.6552,-2.12192 0.14664,-0.29309 0.44648,-0.74089 0.66631,-0.99512 0.97963,-1.13288 3.3457,-5.77333 4.13326,-8.10632 0.83106,-2.46187 1.02803,-4.12327 0.79378,-6.69542 -0.18,-1.97643 -0.2505,-2.23054 -1.06934,-3.85412 -1.02844,-2.03916 -2.29727,-3.42936 -4.33031,-4.74453 -1.59172,-1.02968 -3.96071,-2.0842 -5.27132,-2.34646 -0.50845,-0.10173 -1.63168,-0.38187 -2.49605,-0.62253 -1.18961,-0.3312 -2.08839,-0.4438 -3.69785,-0.4633 -1.23137,-0.0149 -2.37091,-0.12473 -2.70755,-0.26095 -0.3197,-0.12937 -1.19088,-0.82578 -1.93594,-1.54758 -0.74507,-0.72181 -1.49376,-1.35652 -1.66377,-1.41048 -0.40466,-0.12843 -0.78516,-1.06414 -0.63068,-1.55089 0.15862,-0.49975 0.3759,-0.54134 3.97965,-0.76176 1.6779,-0.10263 3.67474,-0.26245 4.43742,-0.35514 1.90084,-0.23103 8.90127,-0.23182 10.26155,-0.002 0.61014,0.10346 2.10777,0.30998 3.32807,0.45893 4.66645,0.56958 9.263,2.25772 12.57269,4.61748 1.94678,1.38802 2.69912,2.13069 3.79928,3.75046 1.36619,2.01145 1.8395,3.06184 2.43522,5.40449 0.4844,1.90487 0.52864,2.31633 0.42491,3.95167 -0.22897,3.60987 -2.20669,9.82735 -4.1085,12.9161 -0.23355,0.37933 -0.42464,0.74516 -0.42464,0.81298 0,0.0678 -0.27496,0.46467 -0.61101,0.88191 -0.33605,0.41724 -0.84886,1.17462 -1.13957,1.68308 -0.29071,0.50845 -0.58362,0.96606 -0.6509,1.01691 -0.0673,0.0508 -0.47588,0.61701 -0.908,1.25814 -0.97378,1.44477 -3.04819,3.90928 -4.93264,5.86023 -0.7858,0.81352 -1.79134,1.92029 -2.23454,2.45948 -0.44319,0.53918 -1.32492,1.40627 -1.95938,1.92685 -0.97885,0.80316 -1.92242,1.68062 -4.6416,4.31644 -0.78222,0.75824 -2.81899,2.42664 -3.81523,3.12521 -0.5593,0.39219 -1.48097,1.1154 -2.04816,1.60713 -0.56719,0.49173 -1.11021,0.89406 -1.2067,0.89406 -0.0965,0 -0.72483,0.43681 -1.3963,0.97068 -1.97853,1.5731 -7.46803,5.34683 -8.28797,5.69753 -0.25238,0.10794 -1.51031,0.8566 -2.79541,1.66368 -1.28509,0.80708 -2.38214,1.46742 -2.4379,1.46742 -0.0558,0 -0.75306,0.38604 -1.54956,0.85788 -2.25562,1.33615 -7.90397,4.24244 -12.26442,6.31048 -3.20792,1.52142 -3.62944,1.70645 -3.88742,1.70645 -0.12437,0 -0.90221,0.30178 -1.72853,0.67062 -0.82633,0.36884 -1.91842,0.85549 -2.42688,1.08146 -0.50846,0.22595 -1.17276,0.47146 -1.47623,0.54557 -0.30348,0.0741 -0.96909,0.32379 -1.47914,0.55486 -0.90945,0.41199 -4.56654,1.69869 -8.04574,2.83079 -1.58333,0.51521 -2.44074,0.76528 -6.1939,1.80651 -0.61015,0.16927 -1.98298,0.50507 -3.05073,0.74621 -1.06776,0.24115 -2.31578,0.55632 -2.77339,0.70038 -0.45761,0.14406 -1.37283,0.32173 -2.03382,0.39481 -0.66099,0.0731 -1.82581,0.28733 -2.58849,0.47612 -0.76269,0.18879 -2.26855,0.42789 -3.34637,0.53136 -1.07781,0.10346 -2.186023,0.27417 -2.462689,0.37936 -1.336535,0.50815 -11.617172,0.74094 -15.915827,0.36039 z m 41.739506,-2.12875 c -0.67795,-0.30995 0.52615,-1.84854 1.58571,-2.0262 0.99833,-0.1674 3.49357,-0.96956 4.60766,-1.48126 0.53358,-0.24507 1.30851,-0.49969 1.72206,-0.56582 0.41355,-0.0661 1.02922,-0.30843 1.36816,-0.53844 0.33894,-0.23001 0.81204,-0.47807 1.05133,-0.55123 0.43026,-0.13156 1.14274,-0.44312 3.49109,-1.52662 0.6639,-0.30631 1.74551,-0.77896 2.4036,-1.05033 1.95873,-0.80772 5.41449,-2.47413 7.80699,-3.76464 l 1.43349,-0.77321 h 3.98302 3.98304 l 0.47584,-0.47585 c 0.43996,-0.43996 0.46418,-0.548 0.32121,-1.43291 -0.085,-0.52639 -0.1569,-1.34608 -0.15966,-1.82151 -0.006,-1.01562 0.46831,-1.64143 1.67693,-2.21295 0.41774,-0.19755 0.92478,-0.51312 1.12674,-0.70128 0.20197,-0.18816 0.65059,-0.487 0.99695,-0.66407 0.74411,-0.38044 4.314,-2.82105 5.5934,-3.82402 1.11694,-0.8756 1.68198,-1.0359 2.15203,-0.61051 0.33886,0.30667 0.35224,0.7371 0.35257,11.34659 1.9e-4,6.65811 -0.0712,11.25514 -0.18013,11.60149 -0.10173,0.32336 -0.38449,0.66662 -0.64806,0.78671 -0.34416,0.1568 -5.92601,0.21214 -21.14613,0.20961 -11.3732,-0.002 -21.37339,0.0383 -22.22264,0.0893 -0.84924,0.051 -1.64809,0.0452 -1.7752,-0.0129 z M 89.948603,184.86634 c -1.165538,-0.79201 -1.315672,-1.29659 -1.179393,-3.96385 0.06511,-1.27446 0.121781,-7.93331 0.125925,-14.79745 0.0075,-12.44496 0.0064,-12.48114 -0.379331,-12.79462 -0.352896,-0.28677 -1.088278,-0.31024 -8.374342,-0.26728 -4.393111,0.0259 -8.133078,-0.0228 -8.311037,-0.10814 -0.177959,-0.0854 -0.323562,-0.31082 -0.323562,-0.50098 0,-0.2097 2.956887,-3.28089 7.514703,-7.80521 4.133086,-4.1027 12.975976,-12.90917 19.650865,-19.56993 27.885809,-27.826768 30.622209,-30.507276 31.143359,-30.507276 0.54475,0 1.76085,1.038087 3.91138,3.338829 0.70736,0.756758 5.29892,5.369607 10.20345,10.250777 4.90455,4.88116 13.68326,13.61981 19.50828,19.41922 5.825,5.7994 10.93849,10.81451 11.36329,11.14469 1.02928,0.79998 1.5165,1.99121 1.12472,2.74984 -0.82428,1.59605 -2.28032,3.93403 -2.80051,4.49678 -0.329,0.35593 -0.81879,0.97993 -1.08843,1.3867 -0.26964,0.40676 -0.75078,1.11398 -1.0692,1.57159 -0.31842,0.45761 -2.77258,3.01606 -5.4537,5.68545 -4.53636,4.51651 -4.92021,4.85343 -5.52949,4.85343 -0.39276,0 -0.66055,-0.0925 -0.66928,-0.23112 -0.008,-0.12711 -0.002,-3.7389 0.0133,-8.0262 0.024,-6.72908 -0.0115,-7.87116 -0.25977,-8.35137 -0.31596,-0.611 -3.0238,-3.3818 -7.0779,-7.24246 -1.44162,-1.37283 -5.4486,-5.2666 -8.9044,-8.65283 -3.4558,-3.38623 -6.6021,-6.38928 -6.99179,-6.67345 -0.38969,-0.28417 -1.88068,-1.6945 -3.31331,-3.13407 -1.43263,-1.43957 -2.73444,-2.61741 -2.89291,-2.61741 -0.15846,0 -0.52762,0.27041 -0.82035,0.6009 -0.29272,0.3305 -2.0645,2.05693 -3.93728,3.83653 -1.87279,1.77958 -4.65796,4.47299 -6.18929,5.98533 -1.53132,1.51235 -3.49143,3.3395 -4.35581,4.06034 -1.40948,1.17544 -7.6014,7.14969 -12.16089,11.73339 l -1.71445,1.72357 0.0131,20.87043 c 0.0105,16.63541 -0.0348,20.94718 -0.2231,21.24871 -0.40747,0.65245 -1.164674,0.75467 -5.590423,0.75467 -4.2677,0 -4.275555,-7.3e-4 -4.962504,-0.46753 z m 29.326557,-24.30652 c -0.90641,-0.36579 -0.99047,-0.75435 -0.99047,-4.5785 0,-3.79665 0.14726,-4.62153 0.89666,-5.02259 0.42339,-0.22659 8.1274,-0.27967 8.45897,-0.0583 0.53963,0.36033 0.62857,1.0332 0.62857,4.75518 0,3.96824 -0.12323,4.6975 -0.8403,4.97267 -0.45559,0.17482 -7.70131,0.11396 -8.15343,-0.0685 z m 12.08209,-0.14487 c -0.24979,-0.27602 -0.30256,-0.93019 -0.33185,-4.11386 -0.0443,-4.81791 -0.0504,-4.73527 0.38105,-5.16673 0.33943,-0.33943 0.63344,-0.36439 4.32748,-0.36737 3.60119,-0.003 4.0024,0.0284 4.39102,0.34314 0.42364,0.34304 0.42775,0.38567 0.4335,4.48934 0.005,3.66102 -0.0323,4.20122 -0.32202,4.64335 l -0.32782,0.50033 h -4.12718 c -3.71807,0 -4.15659,-0.0326 -4.42418,-0.3282 z m -12.43367,-12.3082 -0.63889,-0.63888 v -3.61186 c 0,-1.98653 0.0796,-3.82129 0.17695,-4.07727 0.34716,-0.9131 0.94586,-1.0378 4.98216,-1.0378 4.12513,0 4.57201,0.0942 4.74101,0.99895 0.0588,0.31495 0.081,2.29628 0.0493,4.40296 -0.0509,3.38137 -0.0963,3.86899 -0.38743,4.16009 -0.29214,0.29212 -0.78364,0.33619 -4.30699,0.38623 l -3.97722,0.0565 z m 12.76582,0.39864 c -0.20337,-0.11599 -0.43091,-0.30119 -0.50561,-0.41158 -0.0747,-0.11038 -0.13712,-2.13041 -0.13868,-4.48897 -0.003,-4.22331 0.003,-4.29262 0.4081,-4.57608 0.34116,-0.23896 1.08965,-0.28782 4.40877,-0.28782 3.57654,0 4.02762,0.0341 4.28044,0.32355 0.35128,0.40218 0.601,4.94687 0.40473,7.36573 -0.1925,2.37251 0.009,2.27332 -4.64123,2.28029 -2.55132,0.004 -3.97126,-0.0653 -4.21652,-0.20512 z"
       id="path4511"
       inkscape:connector-curvature="0" />
  </g>
</svg>
